# xmcd CD database file
#
# Track frame offsets:
#	150
#	13859
#	26518
#	43975
#	57190
#	71013
#	81948
#	92362
#	107980
#	119880
#	138705
#	149363
#	163937
#	180925
#	193887
#	211063
#	225789
#	236289
#	248439
#	257409
#	272462
#	282917
#	299520
#	310857
#	320086
#	332311
#
# Disc length: 4649 seconds
#
# Revision: 0
# Processed by: cddbd v1.5.2PL0 Copyright (c) Steve Scherf et al.
# Submitted via: CDex 1.70beta2
#
DISCID=7712271a
DTITLE=Jones Country - Jones Country JCY-031 (Some Christmas)
DYEAR=0000
DGENRE=Country
TTITLE0=Crystal Gayle/Christmas In America
TTITLE1=Anny Murray/It's Beginning To Look A Lot Like Christmas
TTITLE2=Bill Anderson/My Christmas List Grows Shorter
TTITLE3=Gene Autry/Frosty The Snowman
TTITLE4=Johnny Cash/It Ain't Me Babe
TTITLE5=Johnny Cash/Cry, Cry, Cry
TTITLE6=Johnny Cash/Get Rhythm
TTITLE7=Don Williams/'Twas The Night Before Christmas
TTITLE8=Ernest Tubb/Waltz Across Texas
TTITLE9=Billy Dean/White Christmas
TTITLE10=Chris LeDoux/Santa Claus Is Coming To Town
TTITLE11=Billy Dean/Mary, Did You Know
TTITLE12=Tanya Tucker/Wonder
TTITLE13=Oak Ridge Boys/Blue Christmas
TTITLE14=John Berry/Christmas Song
TTITLE15=Tanya Tucker/Christmas To Christmas
TTITLE16=Garth Brooks/Home For The Holidays
TTITLE17=Suzy Bogguss/Two-Step 'Round The Christmas Tree
TTITLE18=Narvel Felts/On This Merry Christmas Night
TTITLE19=Tom T Hall/Homecoming
TTITLE20=Alan Jackson/Winter Wonderland
TTITLE21=Oak Ridge Boys/Christmas Song
TTITLE22=Roy Clark/Let It Snow! Let Is Snow! Let It Snow!
TTITLE23=Roy Clark/Winter Wonderland
TTITLE24=Oak Ridge Boys/White Christmas
TTITLE25=Lari White/White Christmas
EXTD=YEAR: 0000
EXTT0=
EXTT1=
EXTT2=
EXTT3=
EXTT4=
EXTT5=
EXTT6=
EXTT7=
EXTT8=
EXTT9=
EXTT10=
EXTT11=
EXTT12=
EXTT13=
EXTT14=
EXTT15=
EXTT16=
EXTT17=
EXTT18=
EXTT19=
EXTT20=
EXTT21=
EXTT22=
EXTT23=
EXTT24=
EXTT25=
PLAYORDER=
